<svg xmlns="http://www.w3.org/2000/svg" viewBox="0 0 1440 320">
  <defs>
    <linearGradient id="waveGradient" x1="0%" y1="0%" x2="0%" y2="100%">
      <stop offset="0%" style="stop-color:#536F7E; stop-opacity:0.8" />
      <stop offset="100%" style="stop-color:#536F7E; stop-opacity:0" />
    </linearGradient>
  </defs>
  <path fill="url(#waveGradient)" 
    d="M0,224L40,240C80,256,160,288,240,272C320,256,400,192,480,144C560,96,640,64,720,53.3C800,43,880,53,960,69.3C1040,85,1120,107,1200,117.3C1280,128,1360,128,1400,128L1440,128L1440,320L1400,320C1360,320,1280,320,1200,320C1120,320,1040,320,960,320C880,320,800,320,720,320C640,320,560,320,480,320C400,320,320,320,240,320C160,320,80,320,40,320L0,320Z">
    </path>
</svg>