<svg width="320" height="194" viewBox="0 0 320 194" fill="none" xmlns="http://www.w3.org/2000/svg">
<path d="M51.1446 58.7215V64.639H27.0517V84.0824H51.9899V90H14.7939C14.2867 90 13.3849 89.9718 12.0887 89.9155C10.7925 89.8027 9.41173 89.6619 7.94643 89.4928C6.48113 89.2674 5.21308 88.9574 4.14229 88.5629C3.07149 88.1684 2.5361 87.6612 2.5361 87.0412V36.742C2.5361 36.1221 3.07149 35.6149 4.14229 35.2203C5.21308 34.8258 6.48113 34.5441 7.94643 34.375C9.41173 34.1495 10.7925 34.0087 12.0887 33.9523C13.3849 33.8396 14.2867 33.7832 14.7939 33.7832H51.9899V39.7008H27.0517V58.7215H51.1446ZM57.0225 33.7832H81.5381V84.0824H84.0742L93.3732 72.1628V33.7832H117.889V72.4164C117.889 72.5291 117.832 72.6982 117.72 72.9236C116.593 74.5016 115.409 76.0515 114.169 77.5731C112.929 79.0948 111.718 80.6164 110.534 82.1381C109.801 83.0398 109.097 83.9979 108.421 85.0123C107.744 85.9704 107.012 86.8721 106.223 87.7175C105.603 88.3938 104.476 88.901 102.841 89.2392C101.263 89.521 99.6571 89.7182 98.0227 89.8309C96.3883 89.9436 95.1203 90 94.2186 90H69.2803C68.7731 90 67.8714 89.9718 66.5751 89.9155C65.2789 89.8027 63.8981 89.6619 62.4328 89.4928C60.9675 89.2674 59.6995 88.9574 58.6287 88.5629C57.5579 88.1684 57.0225 87.6612 57.0225 87.0412V33.7832ZM171.593 58.7215V64.639H147.5V84.0824H172.438V90H135.242C134.735 90 133.833 89.9718 132.537 89.9155C131.24 89.8027 129.86 89.6619 128.394 89.4928C126.929 89.2674 125.661 88.9574 124.59 88.5629C123.519 88.1684 122.984 87.6612 122.984 87.0412V36.742C122.984 36.1221 123.519 35.6149 124.59 35.2203C125.661 34.8258 126.929 34.5441 128.394 34.375C129.86 34.1495 131.24 34.0087 132.537 33.9523C133.833 33.8396 134.735 33.7832 135.242 33.7832H172.438V39.7008H147.5V58.7215H171.593ZM201.986 90H177.471V36.742C177.471 36.1221 178.006 35.6149 179.077 35.2203C180.148 34.8258 181.416 34.5441 182.881 34.375C184.346 34.1495 185.727 34.0087 187.023 33.9523C188.319 33.8396 189.221 33.7832 189.728 33.7832H221.26C222.444 33.7832 223.966 33.8396 225.825 33.9523C227.685 34.065 229.517 34.3468 231.32 34.7977C233.124 35.2485 234.645 35.9812 235.885 36.9956C237.125 37.9537 237.745 39.2781 237.745 40.9688V90H213.229V57.2844C213.229 56.7772 213.229 55.9036 213.229 54.6637C213.286 53.4239 213.314 52.0149 213.314 50.4369C213.314 48.8589 213.314 47.3091 213.314 45.7874C213.314 44.2094 213.286 42.885 213.229 41.8142C213.229 40.687 213.173 39.9826 213.06 39.7008H201.986V90ZM279.628 90H255.112V39.7008H242.009V33.7832H292.731V39.7008H279.628V90Z" 
fill="#394C56"/>
<path d="M92.9902 160H68.4746V109.701H60.0209V160H35.5053V109.701H27.0517V160H2.5361V106.742C2.5361 106.122 3.07149 105.615 4.14229 105.22C5.21308 104.826 6.48113 104.544 7.94643 104.375C9.41173 104.15 10.7925 104.009 12.0887 103.952C13.3849 103.84 14.2867 103.783 14.7939 103.783H47.7631C48.214 103.783 49.0312 103.811 50.2147 103.868C51.4546 103.924 52.779 104.065 54.1879 104.29C55.5968 104.46 56.8367 104.713 57.9075 105.051C59.0347 105.389 59.711 105.812 59.9364 106.319C60.2182 105.812 60.8663 105.389 61.8807 105.051C62.9515 104.713 64.1632 104.46 65.5158 104.29C66.9247 104.065 68.221 103.924 69.4045 103.868C70.6443 103.811 71.5461 103.783 72.1096 103.783H80.7324C81.2396 103.783 82.1413 103.84 83.4375 103.952C84.7338 104.009 86.1145 104.15 87.5798 104.375C89.0451 104.544 90.3132 104.826 91.384 105.22C92.4548 105.615 92.9902 106.122 92.9902 106.742V160ZM146.745 160H110.31C109.803 160 108.901 159.972 107.605 159.915C106.309 159.803 104.928 159.662 103.463 159.493C101.997 159.267 100.729 158.957 99.6586 158.563C98.5878 158.168 98.0524 157.661 98.0524 157.041V106.742C98.0524 106.122 98.5878 105.615 99.6586 105.22C100.729 104.826 101.997 104.544 103.463 104.375C104.928 104.15 106.309 104.009 107.605 103.952C108.901 103.84 109.803 103.783 110.31 103.783H146.745C147.253 103.783 148.154 103.84 149.451 103.952C150.747 104.009 152.128 104.15 153.593 104.375C155.058 104.544 156.326 104.826 157.397 105.22C158.468 105.615 159.003 106.122 159.003 106.742V157.041C159.003 157.661 158.468 158.168 157.397 158.563C156.326 158.957 155.058 159.267 153.593 159.493C152.128 159.662 150.747 159.803 149.451 159.915C148.154 159.972 147.253 160 146.745 160ZM122.568 154.082H134.488V109.701H122.568V154.082ZM188.612 160H164.097V106.742C164.097 106.122 164.632 105.615 165.703 105.22C166.774 104.826 168.042 104.544 169.507 104.375C170.972 104.15 172.353 104.009 173.649 103.952C174.945 103.84 175.847 103.783 176.354 103.783H207.886C209.07 103.783 210.592 103.84 212.451 103.952C214.311 104.065 216.143 104.347 217.946 104.798C219.75 105.249 221.271 105.981 222.511 106.996C223.751 107.954 224.371 109.278 224.371 110.969V160H199.856V127.284C199.856 126.777 199.856 125.904 199.856 124.664C199.912 123.424 199.94 122.015 199.94 120.437C199.94 118.859 199.94 117.309 199.94 115.787C199.94 114.209 199.912 112.885 199.856 111.814C199.856 110.687 199.799 109.983 199.686 109.701H188.612V160ZM253.996 160H229.48V103.783H253.996V128.13L259.322 126.946L264.14 103.614L288.656 103.952L284.683 122.888C284.626 123.17 284.514 123.762 284.344 124.664C284.175 125.565 284.006 126.467 283.837 127.369C283.668 128.214 283.527 128.693 283.415 128.806C283.02 129.257 282.259 129.68 281.132 130.074C280.005 130.412 278.85 130.694 277.666 130.919C276.483 131.145 275.581 131.342 274.961 131.511L253.996 136.33V160ZM286.965 160H262.45V135.484H274.707C275.215 135.484 276.116 135.541 277.412 135.653C278.709 135.71 280.089 135.851 281.555 136.076C283.02 136.245 284.288 136.527 285.359 136.922C286.43 137.316 286.965 137.823 286.965 138.443V160ZM292.883 103.783H317.398V160H292.883V103.783Z" 
fill="#394C56"/>
</svg>
